<svg width="44" height="43" viewBox="0 0 44 43" fill="none" xmlns="http://www.w3.org/2000/svg">
<path d="M39.996 1.64122H38.463C38.5026 1.51911 38.5436 1.39701 38.5436 1.26177C38.5436 0.565893 37.9539 0 37.229 0C36.5042 0 35.9172 0.565893 35.9172 1.26177C35.9172 1.39701 35.9554 1.51911 35.9977 1.64122H30.9742C31.0138 1.51911 31.0548 1.39701 31.0548 1.26177C31.052 0.565893 30.465 0 29.7388 0C29.0153 0 28.427 0.565893 28.427 1.26177C28.427 1.39701 28.4666 1.51911 28.5075 1.64122H23.4813C23.5209 1.51911 23.5618 1.39701 23.5618 1.26177C23.5618 0.565893 22.9749 0 22.25 0C21.5251 0 20.9382 0.565893 20.9382 1.26177C20.9382 1.39701 20.9764 1.51911 21.0173 1.64122H15.9925C16.0321 1.51911 16.073 1.39701 16.073 1.26177C16.073 0.565893 15.4847 0 14.7612 0C14.0363 0 13.448 0.565893 13.448 1.26177C13.448 1.39701 13.4862 1.51911 13.5271 1.64122H8.50365C8.5446 1.51911 8.58419 1.39701 8.58419 1.26177C8.58419 0.56458 7.99721 0 7.27235 0C6.54749 0 5.95914 0.565893 5.95914 1.26177C5.95914 1.39701 5.99737 1.51911 6.03832 1.64122H4.50397C2.43178 1.64122 0.75 3.26012 0.75 5.25191V39.3893C0.75 41.3824 2.43178 43 4.50397 43H35.7575L43.75 35.3125V5.25191C43.75 3.26012 42.0682 1.64122 39.996 1.64122ZM41.7024 34.4958L41.2778 34.9042H38.0631C36.5588 34.9042 35.3329 36.0859 35.3329 37.5301V40.6222L34.9084 41.0305H4.50397C3.56343 41.0305 2.79762 40.294 2.79762 39.3893V6.56489H41.7024V34.4958Z" fill="#F8FEFF"/>
<path d="M20.3906 30.9063H24.0108V25.6793H29.4425V22.1973H24.0108V16.9717H20.3906V22.1973H14.959V25.6793H20.3906V30.9063Z" fill="#F8FEFF"/>
<path d="M22.2015 36.8761C29.618 36.8761 35.6516 31.0728 35.6516 23.9381C35.6516 16.8034 29.618 11 22.2015 11C14.7837 11 8.75 16.8034 8.75 23.9381C8.75 31.0728 14.7837 36.8761 22.2015 36.8761ZM22.2015 12.9905C28.4768 12.9905 33.5822 17.9023 33.5822 23.9381C33.5822 29.9751 28.4768 34.8857 22.2015 34.8857C15.9249 34.8857 10.8181 29.9751 10.8181 23.9381C10.8181 17.9023 15.9249 12.9905 22.2015 12.9905Z" fill="#F8FEFF"/>
</svg>
