<svg width="107" height="106" viewBox="0 0 107 106" fill="none" xmlns="http://www.w3.org/2000/svg">
<g clip-path="url(#clip0_103_245)">
<path d="M88.8334 57.2405C88.8334 84.1699 73.0141 106 53.5 106C33.986 106 18.1667 84.1699 18.1667 57.2405C18.1667 30.3111 33.986 8.48047 53.5 8.48047C73.0141 8.48047 88.8334 30.3111 88.8334 57.2405Z" fill="#171717"/>
<g filter="url(#filter0_d_103_245)">
<path d="M53.4999 0C24.35 0 0.5 23.8925 0.5 53.3193C0.5 79.9257 19.898 102.009 45.2319 106V68.751H31.77V53.3193H45.2319V41.5592C45.2319 28.2028 53.1289 20.8594 65.2659 20.8594C71.0429 20.8594 77.0849 21.8705 77.0849 21.8705V35.014H70.4069C63.8349 35.014 61.7679 39.1114 61.7679 43.3153V53.3193H76.5019L74.1169 68.751H61.7679V106C74.2568 104.019 85.6296 97.6216 93.8324 87.9609C102.035 78.3006 106.528 66.0138 106.5 53.3193C106.5 23.8925 82.6499 0 53.4999 0Z" fill="#FFE000"/>
</g>
</g>
<defs>
<filter id="filter0_d_103_245" x="-3.5" y="0" width="114" height="114" filterUnits="userSpaceOnUse" color-interpolation-filters="sRGB">
<feFlood flood-opacity="0" result="BackgroundImageFix"/>
<feColorMatrix in="SourceAlpha" type="matrix" values="0 0 0 0 0 0 0 0 0 0 0 0 0 0 0 0 0 0 127 0" result="hardAlpha"/>
<feOffset dy="4"/>
<feGaussianBlur stdDeviation="2"/>
<feComposite in2="hardAlpha" operator="out"/>
<feColorMatrix type="matrix" values="0 0 0 0 0 0 0 0 0 0 0 0 0 0 0 0 0 0 0.25 0"/>
<feBlend mode="normal" in2="BackgroundImageFix" result="effect1_dropShadow_103_245"/>
<feBlend mode="normal" in="SourceGraphic" in2="effect1_dropShadow_103_245" result="shape"/>
</filter>
<clipPath id="clip0_103_245">
<rect width="106" height="106" fill="white" transform="translate(0.5)"/>
</clipPath>
</defs>
</svg>
