<svg width="47" height="49" viewBox="0 0 47 49" fill="none" xmlns="http://www.w3.org/2000/svg">
<g clip-path="url(#clip0_103_306)">
<path fill-rule="evenodd" clip-rule="evenodd" d="M27.286 25.3671L33.19 28.9239C33.7663 29.2711 33.9527 30.0601 33.6282 30.6466C33.2939 31.2507 32.5725 31.4691 31.9794 31.1118L25.9755 27.4948C25.3608 27.9929 24.5886 28.2895 23.75 28.2895C21.7443 28.2895 20.1184 26.5929 20.1184 24.5C20.1184 22.85 21.129 21.4464 22.5395 20.9262V9.35074C22.5395 8.64834 23.101 8.07895 23.75 8.07895C24.4186 8.07895 24.9605 8.66732 24.9605 9.35074V20.9262C26.371 21.4464 27.3816 22.85 27.3816 24.5C27.3816 24.7984 27.3485 25.0887 27.286 25.3671ZM23.75 48.5C36.4526 48.5 46.75 37.7548 46.75 24.5C46.75 11.2452 36.4526 0.5 23.75 0.5C11.0475 0.5 0.75 11.2452 0.75 24.5C0.75 37.7548 11.0475 48.5 23.75 48.5ZM23.75 45.9737C35.1154 45.9737 44.329 36.3596 44.329 24.5C44.329 12.6404 35.1154 3.02632 23.75 3.02632C12.3846 3.02632 3.17105 12.6404 3.17105 24.5C3.17105 36.3596 12.3846 45.9737 23.75 45.9737Z" fill="#F8FEFF"/>
</g>
<defs>
<clipPath id="clip0_103_306">
<rect width="46" height="48" fill="white" transform="translate(0.75 0.5)"/>
</clipPath>
</defs>
</svg>
