<svg width="81" height="641" viewBox="0 0 81 641" fill="none" xmlns="http://www.w3.org/2000/svg">
<path d="M2.33 576.217L2.33 568.187L79 596.787V605.257L2.33 634.847L2.33 626.817L68.88 600.967L2.33 576.217ZM9.59 515.713L9.59 548.493H35.88L35.88 518.243H42.81V548.493H71.74V515.713H79L79 555.973H2.33L2.33 515.713H9.59ZM71.74 496.046V467.776H79V503.526H2.33V496.046H71.74ZM36.65 440.957L79 405.207V415.107L38.41 448.217H79.11V455.697H2.33V448.217H35L2.33 421.487L2.33 411.917L36.65 440.957ZM0.679999 353.332C0.679999 330.232 19.27 313.512 40.5 313.512C61.84 313.512 80.43 330.232 80.43 353.332C80.43 376.542 61.84 393.152 40.5 393.152C19.27 393.152 0.679999 376.542 0.679999 353.332ZM72.84 353.332C72.84 335.182 58.54 321.102 40.5 321.102C22.68 321.102 8.27 335.072 8.27 353.332C8.27 371.592 22.57 385.672 40.5 385.672C58.54 385.672 72.84 371.592 72.84 353.332ZM2.22 233.19L79 219.44V226.7L17.29 237.81L79 256.73V264.1L17.29 283.02L79 294.13V301.28L2.22 287.64V280.16L66.79 260.36L2.22 240.67V233.19ZM2.22 139.278L79 125.528V132.788L17.29 143.898L79 162.818V170.188L17.29 189.108L79 200.218V207.368L2.22 193.728V186.248L66.79 166.448L2.22 146.758V139.278ZM9.59 73.1953L9.59 105.975H35.88V75.7253H42.81L42.81 105.975H71.74V73.1953H79V113.455H2.33L2.33 73.1953H9.59ZM2.33 61.0076L2.33 53.4176L54.25 20.8576H67.67L15.64 53.5276H79V61.0076H2.33ZM2.22 13.9276L2.22 6.33762H79V13.7076L78.67 13.9276H65.25H65.36H2.22Z" fill="#FFE000"/>
</svg>
