<svg width="107" height="106" viewBox="0 0 107 106" fill="none" xmlns="http://www.w3.org/2000/svg">
<g clip-path="url(#clip0_103_248)">
<path d="M106.5 53C106.5 82.2711 82.7711 106 53.5 106C24.2289 106 0.5 82.2711 0.5 53C0.5 23.7289 24.2289 0 53.5 0C82.7711 0 106.5 23.7289 106.5 53Z" fill="#FFE000"/>
<g filter="url(#filter0_d_103_248)">
<path d="M55.2815 17.7259C59.7209 17.667 64.1278 17.6976 68.5319 17.667C68.6784 22.4534 70.913 26.7613 74.4683 29.9522L74.4629 29.9475C78.2894 32.9428 83.2685 34.8847 88.7574 35.2146L88.8334 35.2194V47.0875C83.6482 46.9744 78.7721 45.9351 74.3761 44.1487L74.5985 44.2289C72.4723 43.3404 70.6743 42.4284 68.9658 41.4103L69.1068 41.4904C69.0743 50.0899 69.1394 58.6893 69.039 67.2581C68.7597 71.625 67.0892 75.6077 64.4098 78.933L64.464 78.8599C59.9839 84.4357 52.7268 88.0956 44.4745 88.3124H44.4365C44.1029 88.3266 43.7097 88.3337 43.3138 88.3337C38.6221 88.3337 34.237 87.1977 30.4999 85.2252L30.6084 85.2794C23.8069 81.7232 19.1153 75.6384 18.2475 68.5613L18.2366 68.4647C18.1688 66.9918 18.1363 65.5189 18.2041 64.0766C19.5329 52.8141 30.3915 44.1016 43.5904 44.1016C45.0738 44.1016 46.5274 44.2124 47.9403 44.4221L47.7884 44.4032C47.8562 48.7607 47.6528 53.1205 47.6528 57.478C46.5057 57.1174 45.1823 56.9077 43.8019 56.9077C38.736 56.9077 34.4268 59.7215 32.8322 63.65L32.8078 63.7207C32.4471 64.727 32.2383 65.8842 32.2383 67.0813C32.2383 67.5668 32.2735 68.0476 32.3386 68.5189L32.3332 68.4623C33.2336 73.2841 37.9903 76.9227 43.726 76.9227C43.8914 76.9227 44.0541 76.9204 44.2168 76.9133H44.1924C48.16 76.8096 51.6041 74.9549 53.5513 72.2141L53.5784 72.1717C54.3025 71.295 54.7987 70.2345 54.9642 69.0821L54.9669 69.0491C55.3059 63.7773 55.1703 58.5361 55.2028 53.2643C55.2354 41.3962 55.1703 29.5563 55.2706 17.7188L55.2815 17.7259Z" fill="black"/>
</g>
</g>
<defs>
<filter id="filter0_d_103_248" x="14.1667" y="17.667" width="78.6667" height="78.667" filterUnits="userSpaceOnUse" color-interpolation-filters="sRGB">
<feFlood flood-opacity="0" result="BackgroundImageFix"/>
<feColorMatrix in="SourceAlpha" type="matrix" values="0 0 0 0 0 0 0 0 0 0 0 0 0 0 0 0 0 0 127 0" result="hardAlpha"/>
<feOffset dy="4"/>
<feGaussianBlur stdDeviation="2"/>
<feComposite in2="hardAlpha" operator="out"/>
<feColorMatrix type="matrix" values="0 0 0 0 0.987854 0 0 0 0 0.162814 0 0 0 0 0.509331 0 0 0 0.5 0"/>
<feBlend mode="normal" in2="BackgroundImageFix" result="effect1_dropShadow_103_248"/>
<feBlend mode="normal" in="SourceGraphic" in2="effect1_dropShadow_103_248" result="shape"/>
</filter>
<clipPath id="clip0_103_248">
<rect width="106" height="106" fill="white" transform="translate(0.5)"/>
</clipPath>
</defs>
</svg>
